#!OML:ASF I:\golf\golf\golf 2\Subject 1\2002-09-07\Subject1.ASF
:FULLY-SPECIFIED
:DEGREES
317
root -0.755841 17.0634 -3.48776 85.8004 28.2451 23.989
lowerback 19.3382 5.55603 7.31003
upperback 13.8908 8.48914 13.3077
thorax 3.45017 4.09694 9.04103
lowerneck -10.9104 -12.8554 -0.268159
upperneck -12.8287 -17.9894 1.11938
head -2.21961 -9.336 0.171882
rclavicle -3.18055e-015 6.99722e-014
rhumerus 55.1743 -24.359 -28.2953
rradius 19.4859
rwrist 17.3049
rhand -38.8735 8.67875
rfingers 7.12502
rthumb -11.8816 -20.9641
lclavicle -3.18055e-015 6.99722e-014
lhumerus -25.4116 -25.2443 97.1753
lradius 84.4036
lwrist 17.096
lhand -8.82376 25.7431
lfingers 7.12502
lthumb 17.1161 55.0092
rfemur -103.582 -14.6081 12.0174
rtibia 42.6062
rfoot -6.01418 -12.4223
rtoes 20.309
lfemur -50.6076 -0.0101167 -9.79337
ltibia 34.5176
lfoot 12.192 -8.93198
ltoes -11.964
318
root -0.748871 17.0724 -3.48593 85.6001 28.1664 23.7423
lowerback 19.3105 5.63371 7.10564
upperback 13.9484 8.54566 13.2821
thorax 3.49458 4.11312 9.12228
lowerneck -10.9182 -12.8126 -0.204052
upperneck -12.8888 -17.9306 1.18569
head -2.23714 -9.31072 0.185822
rclavicle -1.04958e-013 -5.08889e-014
rhumerus 54.4774 -23.8647 -28.0416
rradius 19.5786
rwrist 16.8984
rhand -40.8101 9.12627
rfingers 7.12502
rthumb -13.7486 -20.3995
lclavicle -1.04958e-013 -5.08889e-014
lhumerus -25.2781 -25.2516 97.0657
lradius 85.21
lwrist 17.1061
lhand -8.91964 25.5494
lfingers 7.12502
lthumb 17.0238 54.8234
rfemur -103.415 -14.4056 11.9651
rtibia 42.4273
rfoot -5.90297 -12.3478
rtoes 20.7324
lfemur -50.5514 0.0209164 -10.0055
ltibia 34.5826
lfoot 12.2499 -9.30446
ltoes -12.1604
319
root -0.742211 17.0824 -3.48261 85.404 28.0781 23.4468
lowerback 19.2047 5.75363 6.85389
upperback 13.9853 8.6415 13.2592
thorax 3.54241 4.14581 9.2305
lowerneck -10.7498 -12.7915 -0.0475923
upperneck -13.1026 -17.9242 1.21121
head -2.34745 -9.31501 0.19693
rclavicle 8.26944e-014 7.95139e-014
rhumerus 53.5773 -23.2351 -27.5502
rradius 19.7146
rwrist 16.3888
rhand -39.971 9.04399
rfingers 7.12502
rthumb -12.9399 -20.5348
lclavicle 8.26944e-014 7.95139e-014
lhumerus -25.2164 -25.2705 97.0284
lradius 85.9892
lwrist 17.2962
lhand -9.25133 25.4614
lfingers 7.12502
lthumb 16.7045 54.7627
rfemur -103.263 -14.1549 11.8905
rtibia 42.2327
rfoot -5.86589 -12.2953
rtoes 20.9359
lfemur -50.529 0.070738 -10.2023
ltibia 34.616
lfoot 12.3805 -9.46209
ltoes -12.9852
320
root -0.734575 17.0965 -3.48149 85.2467 28.0765 23.3521
lowerback 19.2512 5.73104 6.73759
upperback 13.9593 8.60758 13.2316
thorax 3.47824 4.12535 9.26034
lowerneck -10.6029 -12.7389 -0.00565543
upperneck -13.2638 -17.849 1.31538
head -2.41796 -9.28016 0.241684
rclavicle 2.8625e-014 1.90833e-014
rhumerus 52.6885 -22.3925 -27.1534
rradius 19.9142
rwrist 15.9012
rhand -38.7268 9.24301
rfingers 7.12502
rthumb -11.7402 -20.408
lclavicle 2.8625e-014 1.90833e-014
lhumerus -25.2367 -25.1909 96.9544
lradius 86.8775
lwrist 17.5612
lhand -9.68076 25.6481
lfingers 7.12502
lthumb 16.2911 54.9838
rfemur -102.975 -14.0755 11.7556
rtibia 42.0229
rfoot -5.95574 -12.2984
rtoes 21.7716
lfemur -50.5272 -0.0635944 -10.3402
ltibia 34.6392
lfoot 12.5378 -9.59253
ltoes -12.3546
321
root -0.725427 17.1085 -3.48503 85.1031 28.1036 23.2377
lowerback 19.2538 5.70005 6.63551
upperback 13.9034 8.56341 13.2064
thorax 3.40571 4.10116 9.28816
lowerneck -10.5994 -12.6937 -0.125917
upperneck -13.2178 -17.7499 1.48211
head -2.37407 -9.22635 0.303736
rclavicle -7.95139e-014 6.67916e-014
rhumerus 51.6266 -21.2997 -26.4569
rradius 20.2022
rwrist 15.0523
rhand -37.9835 10.0174
rfingers 7.12502
rthumb -11.0234 -19.6731
lclavicle -7.95139e-014 6.67916e-014
lhumerus -25.3079 -25.0639 96.8909
lradius 87.8343
lwrist 17.6845
lhand -9.95294 25.7175
lfingers 7.12502
lthumb 16.029 55.0745
rfemur -102.741 -14.0048 11.7389
rtibia 41.8004
rfoot -5.99075 -12.2472
rtoes 22.6968
lfemur -50.5735 -0.162811 -10.4684
ltibia 34.6744
lfoot 12.6076 -9.75945
ltoes -11.4258
322
root -0.713603 17.1174 -3.49249 84.9506 28.0889 23.116
lowerback 19.135 5.70575 6.51061
upperback 13.8842 8.54148 13.1774
thorax 3.43147 4.086 9.33784
lowerneck -10.6844 -12.695 -0.202319
upperneck -13.1299 -17.7242 1.60463
head -2.31117 -9.21184 0.337814
rclavicle -6.99722e-014 1.27222e-014
rhumerus 50.3962 -20.0819 -25.3954
rradius 20.5258
rwrist 13.8158
rhand -37.4383 10.5733
rfingers 7.12502
rthumb -10.4975 -19.1446
lclavicle -6.99722e-014 1.27222e-014
lhumerus -25.2336 -25.0135 96.8377
lradius 88.7214
lwrist 17.7848
lhand -10.0276 25.926
lfingers 7.12502
lthumb 15.9571 55.2887
rfemur -102.558 -13.9326 11.7957
rtibia 41.5778
rfoot -5.81885 -12.2
rtoes 20.9834
lfemur -50.6475 -0.289271 -10.667
ltibia 34.7233
lfoot 12.4722 -10.005
ltoes -11.7828
323
root -0.706942 17.1314 -3.49734 84.6792 28.1065 22.9764
lowerback 19.2105 5.68043 6.39339
upperback 13.8593 8.50547 13.1231
thorax 3.35817 4.06583 9.3357
lowerneck -10.8638 -12.6583 -0.222693
upperneck -12.9091 -17.6454 1.70529
head -2.19581 -9.17095 0.344839
rclavicle -7.31528e-014 6.36111e-015
rhumerus 49.164 -18.6672 -24.3774
rradius 20.8574
rwrist 12.5347
rhand -37.2609 11.472
rfingers 7.12502
rthumb -10.3263 -18.2544
lclavicle -7.31528e-014 6.36111e-015
lhumerus -25.1672 -24.9372 96.6782
lradius 89.6514
lwrist 18.1218
lhand -10.1736 26.1141
lfingers 7.12502
lthumb 15.8165 55.488
rfemur -102.264 -13.7816 11.8426
rtibia 41.3628
rfoot -5.43686 -12.2264
rtoes 17.8465
lfemur -50.6432 -0.344991 -10.8933
ltibia 34.7694
lfoot 12.2685 -10.3285
ltoes -13.6556
324
root -0.702674 17.1466 -3.50173 84.3909 28.2274 22.7802
lowerback 19.282 5.64421 6.33745
upperback 13.7917 8.46765 13.0577
thorax 3.24968 4.04927 9.28257
lowerneck -11.081 -12.5804 -0.201011
upperneck -12.5534 -17.5067 1.79712
head -2.03455 -9.09859 0.335065
rclavicle 6.04305e-014 -3.18055e-015
rhumerus 47.9728 -17.2048 -23.6447
rradius 21.206
rwrist 11.3609
rhand -36.6618 12.362
rfingers 7.12502
rthumb -9.74833 -17.3924
lclavicle 6.04305e-014 -3.18055e-015
lhumerus -25.2132 -24.768 96.4821
lradius 90.5784
lwrist 18.488
lhand -10.4456 26.1776
lfingers 7.12502
lthumb 15.5545 55.572
rfemur -101.936 -13.5769 11.8956
rtibia 41.155
rfoot -5.23403 -12.306
rtoes 16.9681
lfemur -50.6646 -0.277408 -11.0213
ltibia 34.8082
lfoot 12.3345 -10.5647
ltoes -12.4692
325
root -0.699491 17.1626 -3.50421 83.9907 28.3659 22.496
lowerback 19.4001 5.64199 6.26801
upperback 13.7312 8.47524 13.0055
thorax 3.11613 4.05324 9.23917
lowerneck -11.1305 -12.5285 -0.207685
upperneck -12.4166 -17.4056 1.96312
head -1.96386 -9.0465 0.373746
rclavicle -6.99722e-014 6.36111e-014
rhumerus 46.9644 -15.924 -23.4764
rradius 21.5014
rwrist 10.3097
rhand -35.7078 12.8655
rfingers 7.12502
rthumb -8.82781 -16.9298
lclavicle -6.99722e-014 6.36111e-014
lhumerus -25.2566 -24.5947 96.3301
lradius 91.4948
lwrist 18.5721
lhand -10.4769 26.3018
lfingers 7.12502
lthumb 15.5244 55.6986
rfemur -101.517 -13.2963 11.927
rtibia 40.9498
rfoot -5.38649 -12.3264
rtoes 17.7533
lfemur -50.5893 -0.0512639 -11.1541
ltibia 34.8231
lfoot 12.5138 -10.8448
ltoes -11.1085
326
root -0.683549 17.1762 -3.51704 83.808 28.4398 22.5171
lowerback 19.3355 5.4928 6.33523
upperback 13.6099 8.30009 12.8935
thorax 3.05847 3.97968 9.10116
lowerneck -11.0236 -12.4828 -0.17709
upperneck -12.5104 -17.3365 2.02784
head -2.00787 -9.01186 0.401929
rclavicle 1.90833e-014 -7.31528e-014
rhumerus 46.011 -14.5909 -23.5146
rradius 21.7647
rwrist 9.21977
rhand -34.9879 13.4161
rfingers 7.12502
rthumb -8.13305 -16.4074
lclavicle 1.90833e-014 -7.31528e-014
lhumerus -25.3012 -24.4739 96.2024
lradius 92.4887
lwrist 18.6239
lhand -10.4442 26.5358
lfingers 7.12502
lthumb 15.5559 55.9301
rfemur -101.136 -13.3621 11.7928
rtibia 40.7457
rfoot -5.51929 -12.3486
rtoes 18.2718
lfemur -50.6777 -0.319238 -11.3334
ltibia 34.8406
lfoot 12.5527 -10.8713
ltoes -10.9629
327
root -0.676495 17.1939 -3.52367 83.3706 28.5391 22.2376
lowerback 19.3857 5.4614 6.30319
upperback 13.5603 8.26295 12.799
thorax 2.98911 3.96498 9.0072
lowerneck -11.0071 -12.4202 -0.12463
upperneck -12.5394 -17.2472 2.04474
head -2.02283 -8.96652 0.40398
rclavicle -2.54444e-014 -9.70069e-014
rhumerus 44.9304 -13.0788 -23.2849
rradius 22.1058
rwrist 7.83393
rhand -34.1055 13.4857
rfingers 7.12502
rthumb -7.28136 -16.369
lclavicle -2.54444e-014 -9.70069e-014
lhumerus -25.3164 -24.3454 96.0473
lradius 93.4093
lwrist 18.8795
lhand -10.8273 26.5607
lfingers 7.12502
lthumb 15.1868 55.9834
rfemur -100.675 -13.0887 11.7088
rtibia 40.5552
rfoot -5.55776 -12.4327
rtoes 18.7195
lfemur -50.6086 -0.281678 -11.4479
ltibia 34.8437
lfoot 12.5532 -10.8711
ltoes -11.0674
328
root -0.667223 17.2096 -3.53552 83.0463 28.6863 22.1063
lowerback 19.2562 5.38439 6.36634
upperback 13.5332 8.15864 12.7027
thorax 3.05919 3.92315 8.89347
lowerneck -11.2163 -12.4137 -0.165864
upperneck -12.3563 -17.2085 2.17986
head -1.91253 -8.94456 0.423642
rclavicle -9.85972e-014 1.59028e-014
rhumerus 43.897 -11.7134 -23.1854
rradius 22.4092
rwrist 6.32181
rhand -32.7849 13.2737
rfingers 7.12502
rthumb -6.00651 -16.6212
lclavicle -9.85972e-014 1.59028e-014
lhumerus -25.2419 -24.2552 95.8588
lradius 94.2713
lwrist 19.2109
lhand -11.2589 26.1351
lfingers 7.12502
lthumb 14.7711 55.5887
rfemur -100.252 -12.9687 11.6497
rtibia 40.3579
rfoot -5.38975 -12.5348
rtoes 18.5654
lfemur -50.6532 -0.285169 -11.6133
ltibia 34.8424
lfoot 12.3834 -11.0243
ltoes -11.0439
329
root -0.659491 17.2258 -3.54693 82.7071 28.8394 21.9353
lowerback 19.1399 5.3115 6.37362
upperback 13.4762 8.05858 12.6185
thorax 3.07775 3.88058 8.81811
lowerneck -11.3792 -12.4279 -0.274644
upperneck -12.1845 -17.1912 2.33266
head -1.80651 -8.93033 0.460669
rclavicle 6.36111e-015 -4.6118e-014
rhumerus 42.9487 -10.3329 -23.2782
rradius 22.6717
rwrist 4.62162
rhand -31.1547 13.0807
rfingers 7.12502
rthumb -4.43253 -16.8529
lclavicle 6.36111e-015 -4.6118e-014
lhumerus -25.2273 -24.157 95.6318
lradius 95.2251
lwrist 19.4708
lhand -11.3361 26.004
lfingers 7.12502
lthumb 14.6967 55.4631
rfemur -99.8507 -12.8039 11.6778
rtibia 40.1385
rfoot -5.02294 -12.6271
rtoes 17.4103
lfemur -50.6886 -0.184881 -11.7936
ltibia 34.8172
lfoot 12.2328 -11.0258
ltoes -11.2506
